<?xml version="1.0" standalone="no"?>
<!DOCTYPE svg PUBLIC "-//W3C//DTD SVG 20010904//EN"
 "http://www.w3.org/TR/2001/REC-SVG-20010904/DTD/svg10.dtd">
<svg version="1.0" xmlns="http://www.w3.org/2000/svg"
 width="359.000000pt" height="375.000000pt" viewBox="0 0 359.000000 375.000000"
 preserveAspectRatio="xMidYMid meet">

<g transform="translate(0.000000,375.000000) scale(0.100000,-0.100000)"
fill="#000000" stroke="none">
<path d="M1795 1514 c-11 -2 -46 -6 -78 -9 -32 -4 -57 -8 -55 -11 2 -2 60 2
129 10 68 7 102 13 74 13 -27 0 -59 -1 -70 -3z"/>
<path d="M1142 1460 c-12 -19 -22 -39 -22 -45 1 -5 7 1 14 14 12 21 13 -4 8
-175 -3 -127 0 -231 7 -289 12 -90 50 -259 57 -252 2 2 -5 48 -15 103 -35 184
-43 318 -30 493 6 87 9 165 7 173 -3 8 -13 0 -26 -22z"/>
<path d="M1628 1483 c7 -3 16 -2 19 1 4 3 -2 6 -13 5 -11 0 -14 -3 -6 -6z"/>
<path d="M1536 1363 c-25 -157 -41 -442 -30 -538 8 -74 9 -63 15 135 4 118 14
280 24 359 9 79 14 145 12 148 -2 2 -12 -45 -21 -104z"/>
<path d="M987 1331 c-5 -29 -6 -56 -3 -58 7 -8 18 61 14 88 -2 15 -7 3 -11
-30z"/>
<path d="M1101 1354 c0 -11 3 -14 6 -6 3 7 2 16 -1 19 -3 4 -6 -2 -5 -13z"/>
<path d="M1091 1314 c0 -11 3 -14 6 -6 3 7 2 16 -1 19 -3 4 -6 -2 -5 -13z"/>
<path d="M1003 1245 c0 -27 2 -38 4 -22 2 15 2 37 0 50 -2 12 -4 0 -4 -28z"/>
<path d="M1071 1214 c0 -11 3 -14 6 -6 3 7 2 16 -1 19 -3 4 -6 -2 -5 -13z"/>
<path d="M971 1174 c0 -11 3 -14 6 -6 3 7 2 16 -1 19 -3 4 -6 -2 -5 -13z"/>
<path d="M1013 1140 c0 -30 2 -43 4 -27 2 15 2 39 0 55 -2 15 -4 2 -4 -28z"/>
<path d="M2146 1153 c-25 -145 -22 -428 5 -511 17 -51 22 -31 9 33 -17 80 -20
250 -8 382 10 115 7 171 -6 96z"/>
<path d="M2298 1149 c25 -27 10 -102 -31 -149 l-22 -25 28 24 c45 41 64 148
27 159 -12 4 -13 2 -2 -9z"/>
<path d="M1692 1133 c-34 -14 -66 -133 -50 -189 9 -35 36 -58 55 -46 11 8 33
47 33 59 -1 4 -8 -5 -16 -20 -36 -66 -76 4 -55 97 11 51 50 104 64 89 12 -12
7 -29 -18 -69 l-26 -39 31 33 c46 49 34 107 -18 85z"/>
<path d="M1245 1120 c-3 -5 -2 -10 4 -10 5 0 13 5 16 10 3 6 2 10 -4 10 -5 0
-13 -4 -16 -10z"/>
<path d="M1837 1123 c-19 -30 -18 -227 0 -209 6 5 12 216 7 216 -2 0 -5 -3 -7
-7z"/>
<path d="M1968 1103 c-51 -55 -82 -149 -58 -178 23 -28 48 -17 84 36 l34 51 7
-30 c3 -17 14 -36 23 -43 14 -11 15 -11 5 1 -7 8 -13 28 -13 44 0 17 -5 38
-11 46 -11 17 -8 20 -62 -67 -45 -72 -75 -34 -42 54 34 89 85 124 127 86 22
-20 24 -11 2 11 -24 25 -67 20 -96 -11z"/>
<path d="M2355 1120 c-3 -5 -2 -10 4 -10 5 0 13 5 16 10 3 6 2 10 -4 10 -5 0
-13 -4 -16 -10z"/>
<path d="M2508 1103 c-51 -55 -82 -149 -58 -178 23 -28 48 -17 84 36 l34 51 7
-30 c3 -17 14 -36 23 -43 14 -11 15 -11 5 1 -7 8 -13 28 -13 44 0 17 -5 38
-11 46 -11 17 -8 20 -62 -67 -45 -72 -75 -34 -42 54 34 89 85 124 127 86 22
-20 24 -11 2 11 -24 25 -67 20 -96 -11z"/>
<path d="M1051 1104 c0 -11 3 -14 6 -6 3 7 2 16 -1 19 -3 4 -6 -2 -5 -13z"/>
<path d="M2358 1075 c-7 -12 -28 -121 -28 -146 0 -9 8 -25 18 -36 9 -10 14
-14 10 -9 -11 14 -10 81 3 131 11 42 9 79 -3 60z"/>
<path d="M961 1054 c0 -11 3 -14 6 -6 3 7 2 16 -1 19 -3 4 -6 -2 -5 -13z"/>
<path d="M1024 1051 c1 -22 26 -26 26 -4 0 14 -2 15 -9 4 -8 -12 -10 -12 -13
0 -4 12 -5 12 -4 0z"/>
<path d="M1231 1020 c-15 -69 -14 -112 3 -136 12 -16 17 -17 28 -6 11 11 10
13 -2 10 -12 -2 -15 9 -15 57 0 33 3 75 7 93 4 17 3 32 -1 32 -5 0 -14 -23
-20 -50z"/>
<path d="M873 935 c0 -27 2 -38 4 -22 2 15 2 37 0 50 -2 12 -4 0 -4 -28z"/>
<path d="M900 836 c7 -7 13 -7 20 0 6 6 3 10 -10 10 -13 0 -16 -4 -10 -10z"/>
</g>
</svg>
